<svg xmlns="http://www.w3.org/2000/svg" version="1.1" xmlns:xlink="http://www.w3.org/1999/xlink" xmlns:svgjs="http://svgjs.dev/svgjs" width="1500" height="321" viewBox="0 0 1500 321"><g transform="matrix(1,0,0,1,-0.9090909090909918,-9.059380848092644)"><svg viewBox="0 0 396 85" data-background-color="#3d9970" preserveAspectRatio="xMidYMid meet" height="321" width="1500" xmlns="http://www.w3.org/2000/svg" xmlns:xlink="http://www.w3.org/1999/xlink"><g id="tight-bounds" transform="matrix(1,0,0,1,0.2400000000000091,2.3989014706787373)"><svg viewBox="0 0 395.52 80.2007207378934" height="80.2007207378934" width="395.52"><g><svg viewBox="0 0 418.11907618126986 84.78320000000001" height="80.2007207378934" width="395.52"><g><svg viewBox="0 0 418.11907618126986 84.78320000000001" height="84.78320000000001" width="418.11907618126986"><g id="textblocktransform"><svg viewBox="0 0 418.11907618126986 84.78320000000001" height="84.78320000000001" width="418.11907618126986" id="textblock"><g><svg viewBox="0 0 418.11907618126986 84.78320000000001" height="84.78320000000001" width="418.11907618126986"><g><svg><g></g><g></g></svg></g><g><svg><g><svg></svg></g><g></g></svg></g><g id="text-0"><svg viewBox="0 0 418.11907618126986 84.78320000000001" height="84.78320000000001" width="418.11907618126986"><g transform="matrix(1,0,0,1,0,16.1916)"><svg width="138.45000000000002" viewBox="2.25 -39.1 138.44 52.400000000000006" height="52.400000000000006" data-palette-color="#2ecc40"><path d="M14.6 0.7L14.6 0.7Q11 0.7 8.2-0.33 5.4-1.35 3.83-3.18 2.25-5 2.25-7.35L2.25-7.35Q2.25-9.95 3.88-11.58 5.5-13.2 7.95-13.2L7.95-13.2Q9-13.2 9-12.6L9-12.6Q9-12.4 8.6-11.85 8.2-11.3 7.8-10.38 7.4-9.45 7.4-8.05L7.4-8.05Q7.4-5.45 9.4-3.78 11.4-2.1 14.6-2.1L14.6-2.1Q17.4-2.1 19.23-3.58 21.05-5.05 21.05-7.75L21.05-7.75Q21.05-9.85 20.08-11.28 19.1-12.7 17.5-13.7 15.9-14.7 13.98-15.55 12.05-16.4 10.13-17.32 8.2-18.25 6.6-19.48 5-20.7 4.03-22.5 3.05-24.3 3.05-26.9L3.05-26.9Q3.05-29.35 4.23-31.58 5.4-33.8 7.83-35.2 10.25-36.6 13.95-36.6L13.95-36.6Q17.25-36.6 19.8-35.68 22.35-34.75 23.78-33.1 25.2-31.45 25.2-29.25L25.2-29.25Q25.2-26.65 23.68-25.03 22.15-23.4 19.85-23.4L19.85-23.4Q18.8-23.4 18.8-24L18.8-24Q18.8-24.25 19.18-24.78 19.55-25.3 19.93-26.23 20.3-27.15 20.3-28.55L20.3-28.55Q20.3-30.9 18.55-32.35 16.8-33.8 13.95-33.8L13.95-33.8Q10.85-33.8 9.33-32.02 7.8-30.25 7.8-28.05L7.8-28.05Q7.8-26.2 8.8-24.9 9.8-23.6 11.43-22.63 13.05-21.65 15-20.8 16.95-19.95 18.9-18.98 20.85-18 22.48-16.7 24.1-15.4 25.1-13.55 26.1-11.7 26.1-9.05L26.1-9.05Q26.1-4.7 23.18-2 20.25 0.7 14.6 0.7ZM40.85 13.3L32.15 13.3 31.55 12.55 32.15 11.75Q33.05 10.45 33.4 9.05 33.75 7.65 33.75 5.3L33.75 5.3 33.75-19.05Q33.75-19.8 33.55-20.18 33.35-20.55 32.7-20.7L32.7-20.7 30.1-21.25 30.1-22.9Q30.65-23.4 31.87-23.85 33.1-24.3 34.52-24.6 35.95-24.9 37.05-24.9L37.05-24.9Q38.25-24.9 38.25-22.6L38.25-22.6 38.25-22.35Q41.5-25.5 45.45-25.5L45.45-25.5Q48.6-25.5 51-23.95 53.4-22.4 54.75-19.68 56.1-16.95 56.1-13.4L56.1-13.4Q56.1-9.35 54.67-6.18 53.25-3 50.77-1.15 48.3 0.7 45.1 0.7L45.1 0.7Q42.15 0.7 40.1-0.65L40.1-0.65Q39.65-0.95 39.65-1.55L39.65-1.55Q39.65-2 39.82-2.4 40-2.8 40.4-2.8L40.4-2.8Q40.8-2.8 41.52-2.4 42.25-2 43.95-2L43.95-2Q45.95-2 47.5-3.35 49.05-4.7 49.92-7.05 50.8-9.4 50.8-12.4L50.8-12.4Q50.8-15.3 49.92-17.5 49.05-19.7 47.47-20.95 45.9-22.2 43.85-22.2L43.85-22.2Q40.8-22.2 38.25-20.25L38.25-20.25 38.25 7.75Q38.25 9.6 38.67 10.4 39.1 11.2 40.35 11.5L40.35 11.5 41.4 11.75 40.85 13.3ZM72.09 0.7L72.09 0.7Q68.59 0.7 66.02-0.9 63.45-2.5 62.02-5.38 60.59-8.25 60.59-12.1L60.59-12.1Q60.59-16.15 62.2-19.15 63.8-22.15 66.72-23.83 69.64-25.5 73.55-25.5L73.55-25.5Q76.44-25.5 78.32-24.45 80.19-23.4 81.12-21.73 82.05-20.05 82.05-18.15L82.05-18.15Q82.05-16.1 80.97-14.15 79.89-12.2 77.77-10.95 75.64-9.7 72.5-9.7L72.5-9.7Q72-9.7 71.07-9.83 70.14-9.95 69.22-10.23 68.3-10.5 67.64-10.95 67-11.4 67-12.05L67-12.05Q67-12.45 67.22-12.8 67.44-13.15 67.75-13.15L67.75-13.15Q68.14-13.15 68.77-12.83 69.39-12.5 70.94-12.5L70.94-12.5Q73.09-12.5 74.5-13.33 75.89-14.15 76.59-15.48 77.3-16.8 77.3-18.2L77.3-18.2Q77.3-20.05 76.09-21.53 74.89-23 72.55-23L72.55-23Q69.34-23 67.55-20.2 65.75-17.4 65.75-12.1L65.75-12.1Q65.75-7.7 67.62-5.15 69.5-2.6 73.14-2.6L73.14-2.6Q75.25-2.6 77.09-3.3 78.94-4 80.44-5.45L80.44-5.45Q80.64-5.65 80.89-5.65L80.89-5.65Q81.3-5.65 81.75-5.18 82.19-4.7 82.19-4.2L82.19-4.2Q82.19-3.95 82-3.75L82-3.75Q78.14 0.7 72.09 0.7ZM98.54 0.7L98.54 0.7Q95.04 0.7 92.47-0.9 89.89-2.5 88.47-5.38 87.04-8.25 87.04-12.1L87.04-12.1Q87.04-16.15 88.64-19.15 90.24-22.15 93.17-23.83 96.09-25.5 99.99-25.5L99.99-25.5Q102.89-25.5 104.77-24.45 106.64-23.4 107.57-21.73 108.49-20.05 108.49-18.15L108.49-18.15Q108.49-16.1 107.42-14.15 106.34-12.2 104.22-10.95 102.09-9.7 98.94-9.7L98.94-9.7Q98.44-9.7 97.52-9.83 96.59-9.95 95.67-10.23 94.74-10.5 94.09-10.95 93.44-11.4 93.44-12.05L93.44-12.05Q93.44-12.45 93.67-12.8 93.89-13.15 94.19-13.15L94.19-13.15Q94.59-13.15 95.22-12.83 95.84-12.5 97.39-12.5L97.39-12.5Q99.54-12.5 100.94-13.33 102.34-14.15 103.04-15.48 103.74-16.8 103.74-18.2L103.74-18.2Q103.74-20.05 102.54-21.53 101.34-23 98.99-23L98.99-23Q95.79-23 93.99-20.2 92.19-17.4 92.19-12.1L92.19-12.1Q92.19-7.7 94.07-5.15 95.94-2.6 99.59-2.6L99.59-2.6Q101.69-2.6 103.54-3.3 105.39-4 106.89-5.45L106.89-5.45Q107.09-5.65 107.34-5.65L107.34-5.65Q107.74-5.65 108.19-5.18 108.64-4.7 108.64-4.2L108.64-4.2Q108.64-3.95 108.44-3.75L108.44-3.75Q104.59 0.7 98.54 0.7ZM122.44 0.7L122.44 0.7Q120.09 0.7 118.04-0.65 115.99-2 114.74-4.7 113.49-7.4 113.49-11.45L113.49-11.45Q113.49-15.8 115.07-18.95 116.64-22.1 119.57-23.8 122.49-25.5 126.44-25.5L126.44-25.5Q129.04-25.5 131.19-24.85L131.19-24.85 131.19-33.7Q131.19-34.8 130.19-34.8L130.19-34.8 127.99-34.8 127.54-36.1Q128.99-37.4 130.87-38.25 132.74-39.1 134.14-39.1L134.14-39.1Q134.84-39.1 135.29-38.65 135.74-38.2 135.74-37.5L135.74-37.5 135.74-4.4Q135.74-2.85 137.24-2.85L137.24-2.85Q138.49-2.85 139.74-3.75L139.74-3.75 140.69-2.45Q139.39-1 137.92-0.15 136.44 0.7 135.14 0.7L135.14 0.7Q133.09 0.7 132.19-0.55 131.29-1.8 131.29-4.6L131.29-4.6Q129.14-1.55 126.97-0.43 124.79 0.7 122.44 0.7ZM124.44-3.15L124.44-3.15Q126.34-3.15 128.12-4.25 129.89-5.35 131.29-7.7L131.29-7.7 131.29-21.2Q128.99-22.75 126.39-22.75L126.39-22.75Q122.74-22.75 120.74-20.03 118.74-17.3 118.74-12.4L118.74-12.4Q118.74-9 119.54-6.98 120.34-4.95 121.67-4.05 122.99-3.15 124.44-3.15Z" opacity="1" transform="matrix(1,0,0,1,0,0)" fill="#2ecc40" class="undefined-tk-0"></path></svg></g><g><svg xmlns="http://www.w3.org/2000/svg" xmlns:xlink="http://www.w3.org/1999/xlink" xml:space="preserve" style="shape-rendering:geometricPrecision;text-rendering:geometricPrecision;image-rendering:optimizeQuality;" viewBox="-0.0019999999999988916 0 18.624500013717682 18.624000013717684" x="158.46680000000003" y="0" fill-rule="evenodd" clip-rule="evenodd" id="dxe-0" width="84.7854761812698" height="84.78320000000001" class="icon-dxe-0" data-fill-palette-color="accent"><g fill="#2ecc40" data-fill-palette-color="accent"><path class="" d="M13.625 5.166A5.99 5.99 0 0 0 5.166 4.998 5.99 5.99 0 0 0 4.998 13.456 5.99 5.99 0 0 0 13.457 13.624 5.99 5.99 0 0 0 13.624 5.166M14.587 10.546L11.363 9.613A2 2 0 0 0 11.373 9.09L14.633 8.287A5.5 5.5 0 0 1 14.588 10.547M13.265 13.021L10.938 10.598C11.048 10.459 11.138 10.309 11.208 10.152L14.434 11.085A5.4 5.4 0 0 1 13.265 13.02M10.881 14.5L10.076 11.24A2 2 0 0 0 10.533 10.987L12.862 13.41A5.4 5.4 0 0 1 10.88 14.5M7.635 10.533L5.213 12.861A5.4 5.4 0 0 1 4.123 10.88L7.383 10.075C7.446 10.236 7.53 10.39 7.635 10.533M8.024 10.938C8.163 11.048 8.314 11.138 8.47 11.208L7.537 14.433A5.4 5.4 0 0 1 5.602 13.265zM8.22 10.36A1.516 1.516 0 0 1 8.262 8.22 1.516 1.516 0 0 1 10.403 8.261C10.982 8.864 10.963 9.824 10.361 10.402A1.516 1.516 0 0 1 8.22 10.36M5.358 5.602L7.685 8.023C7.575 8.163 7.485 8.313 7.415 8.47L4.189 7.537A5.4 5.4 0 0 1 5.358 5.602M7.742 4.122L8.547 7.382C8.387 7.447 8.233 7.53 8.089 7.636L5.762 5.213A5.4 5.4 0 0 1 7.742 4.123M10.988 8.09L13.409 5.762A5.4 5.4 0 0 1 14.5 7.742L11.24 8.546A2 2 0 0 0 10.989 8.09M10.599 7.685C10.46 7.575 10.31 7.485 10.152 7.415L11.085 4.188A5.4 5.4 0 0 1 13.021 5.357zM10.546 4.035L9.613 7.258A2 2 0 0 0 9.091 7.25L8.287 3.99A5.5 5.5 0 0 1 10.547 4.034M4.034 8.075L7.26 9.01A2 2 0 0 0 7.25 9.531L3.99 10.336A5.5 5.5 0 0 1 4.034 8.076M8.076 14.588L9.01 11.363C9.182 11.388 9.358 11.39 9.53 11.373L10.336 14.633A5.5 5.5 0 0 1 8.076 14.588" fill="#2ecc40" data-fill-palette-color="accent"></path><path class="" d="M9.707 8.527A0.88 0.88 0 0 0 8.915 10.096 0.88 0.88 0 0 0 9.707 8.526M9.167 9.595A0.318 0.318 0 1 1 9.457 9.027 0.318 0.318 0 0 1 9.168 9.595" fill="#2ecc40" data-fill-palette-color="accent"></path><path class="" d="M9.311 0A9.312 9.312 0 1 1 9.31 18.624 9.312 9.312 0 0 1 9.31 0M9.311 3.064A6.247 6.247 0 1 0 9.311 15.558 6.247 6.247 0 1 0 9.311 3.064" fill="#2ecc40" fill-rule="nonzero" data-fill-palette-color="accent"></path></g></svg></g><g transform="matrix(1,0,0,1,263.26907618126984,16.191600000000005)"><svg width="154.85000000000002" viewBox="1.75 -39.1 154.84 39.800000000000004" height="39.800000000000004" data-palette-color="#2ecc40"><path d="M17.75 0.7L17.75 0.7Q13.7 0.7 10.7-0.75 7.7-2.2 5.7-4.75 3.7-7.3 2.73-10.68 1.75-14.05 1.75-17.9L1.75-17.9Q1.75-21.75 2.73-25.15 3.7-28.55 5.7-31.13 7.7-33.7 10.75-35.15 13.8-36.6 17.9-36.6L17.9-36.6Q21.2-36.6 23.75-35.68 26.3-34.75 27.73-33.1 29.15-31.45 29.15-29.25L29.15-29.25Q29.15-26.65 27.63-25.03 26.1-23.4 23.8-23.4L23.8-23.4Q22.75-23.4 22.75-24L22.75-24Q22.75-24.25 23.13-24.78 23.5-25.3 23.88-26.23 24.25-27.15 24.25-28.55L24.25-28.55Q24.25-30.9 22.5-32.35 20.75-33.8 17.9-33.8L17.9-33.8Q14.95-33.8 12.95-32.4 10.95-31 9.73-28.68 8.5-26.35 7.95-23.53 7.4-20.7 7.4-17.9L7.4-17.9Q7.4-13.75 8.7-10.3 10-6.85 12.43-4.8 14.85-2.75 18.2-2.75L18.2-2.75Q21.5-2.75 23.85-3.98 26.2-5.2 27.6-7.25L27.6-7.25Q27.75-7.45 27.95-7.45L27.95-7.45Q28.4-7.45 28.98-7 29.55-6.55 29.55-6.05L29.55-6.05Q29.55-5.9 29.4-5.65L29.4-5.65Q27.45-2.75 24.6-1.03 21.75 0.7 17.75 0.7ZM40.1 0.7L40.1 0.7Q38.05 0.7 37.15-0.55 36.25-1.8 36.25-4.6L36.25-4.6 36.25-20.1Q36.25-21.2 35.25-21.2L35.25-21.2 33.05-21.2 32.6-22.5Q34.05-23.8 35.92-24.65 37.8-25.5 39.2-25.5L39.2-25.5Q39.9-25.5 40.32-25.05 40.75-24.6 40.75-23.9L40.75-23.9 40.75-4.4Q40.75-2.7 42.25-2.7L42.25-2.7Q43.5-2.7 44.75-3.75L44.75-3.75 45.7-2.45Q44.4-1 42.9-0.15 41.4 0.7 40.1 0.7ZM38.6-29.65L38.6-29.65Q38.05-29.65 37.32-30.2 36.6-30.75 36.07-31.5 35.55-32.25 35.55-32.9L35.55-32.9Q35.55-33.55 36.07-34.33 36.6-35.1 37.3-35.65 38-36.2 38.6-36.2L38.6-36.2Q39.25-36.2 39.97-35.65 40.7-35.1 41.22-34.33 41.75-33.55 41.75-32.9L41.75-32.9Q41.75-32.25 41.22-31.5 40.7-30.75 39.97-30.2 39.25-29.65 38.6-29.65ZM58.25 0L49.5 0 48.95-1.55 50-1.8Q51.3-2.1 51.7-2.9 52.1-3.7 52.1-5.55L52.1-5.55 52.1-19.6Q52.1-20.7 51.1-20.7L51.1-20.7 48.9-20.7 48.45-22Q49.9-23.3 51.77-24.15 53.65-25 55.05-25L55.05-25Q55.75-25 56.2-24.55 56.65-24.1 56.65-23.4L56.65-23.4 56.65-18.05 56.95-18.05Q57.8-21.4 59.57-23.45 61.35-25.5 63.45-25.5L63.45-25.5Q65.5-25.5 66.9-24.15 68.3-22.8 68.3-20.4L68.3-20.4Q68.3-18.5 66.92-17.2 65.55-15.9 63.4-15.9L63.4-15.9Q62.45-15.9 62.45-16.45L62.45-16.45Q62.45-16.7 62.8-17.15 63.15-17.6 63.5-18.3 63.85-19 63.85-19.9L63.85-19.9Q63.85-20.8 63.37-21.33 62.9-21.85 62.2-21.85L62.2-21.85Q61.15-21.85 59.85-20.53 58.55-19.2 57.6-16.13 56.65-13.05 56.65-7.8L56.65-7.8Q56.65-5.55 57-4.17 57.35-2.8 58.25-1.55L58.25-1.55 58.85-0.75 58.25 0ZM82.59 0.7L82.59 0.7Q79.09 0.7 76.37-1 73.64-2.7 72.09-5.65 70.54-8.6 70.54-12.35L70.54-12.35Q70.54-16.35 72.04-19.3 73.54-22.25 76.27-23.88 78.99-25.5 82.64-25.5L82.64-25.5Q86.49-25.5 88.97-23.63 91.44-21.75 91.44-18.8L91.44-18.8Q91.44-16.65 90.07-15.28 88.69-13.9 86.54-13.9L86.54-13.9Q85.59-13.9 85.59-14.45L85.59-14.45Q85.59-14.7 85.89-15.1 86.19-15.5 86.49-16.32 86.79-17.15 86.79-18.55L86.79-18.55Q86.79-20.55 85.52-21.73 84.24-22.9 82.09-22.9L82.09-22.9Q79.24-22.9 77.49-20.1 75.74-17.3 75.74-12.75L75.74-12.75Q75.74-8.1 77.82-5.38 79.89-2.65 83.44-2.65L83.44-2.65Q87.04-2.65 90.04-5.15L90.04-5.15Q90.19-5.3 90.49-5.3L90.49-5.3Q90.89-5.3 91.32-4.85 91.74-4.4 91.74-3.9L91.74-3.9Q91.74-3.6 91.59-3.45L91.59-3.45Q89.84-1.45 87.52-0.38 85.19 0.7 82.59 0.7ZM102.49 0.7L102.49 0.7Q100.44 0.7 99.54-0.55 98.64-1.8 98.64-4.6L98.64-4.6 98.64-33.7Q98.64-34.8 97.64-34.8L97.64-34.8 95.44-34.8 94.99-36.1Q96.44-37.4 98.32-38.25 100.19-39.1 101.59-39.1L101.59-39.1Q102.29-39.1 102.72-38.65 103.14-38.2 103.14-37.5L103.14-37.5 103.14-4.4Q103.14-2.7 104.64-2.7L104.64-2.7Q105.89-2.7 107.14-3.75L107.14-3.75 108.09-2.45Q106.79-1 105.29-0.15 103.79 0.7 102.49 0.7ZM122.59 0.7L122.59 0.7Q119.09 0.7 116.51-0.9 113.94-2.5 112.51-5.38 111.09-8.25 111.09-12.1L111.09-12.1Q111.09-16.15 112.69-19.15 114.29-22.15 117.21-23.83 120.14-25.5 124.04-25.5L124.04-25.5Q126.94-25.5 128.81-24.45 130.69-23.4 131.61-21.73 132.54-20.05 132.54-18.15L132.54-18.15Q132.54-16.1 131.46-14.15 130.39-12.2 128.26-10.95 126.14-9.7 122.99-9.7L122.99-9.7Q122.49-9.7 121.56-9.83 120.64-9.95 119.71-10.23 118.79-10.5 118.14-10.95 117.49-11.4 117.49-12.05L117.49-12.05Q117.49-12.45 117.71-12.8 117.94-13.15 118.24-13.15L118.24-13.15Q118.64-13.15 119.26-12.83 119.89-12.5 121.44-12.5L121.44-12.5Q123.59-12.5 124.99-13.33 126.39-14.15 127.09-15.48 127.79-16.8 127.79-18.2L127.79-18.2Q127.79-20.05 126.59-21.53 125.39-23 123.04-23L123.04-23Q119.84-23 118.04-20.2 116.24-17.4 116.24-12.1L116.24-12.1Q116.24-7.7 118.11-5.15 119.99-2.6 123.64-2.6L123.64-2.6Q125.74-2.6 127.59-3.3 129.44-4 130.94-5.45L130.94-5.45Q131.14-5.65 131.39-5.65L131.39-5.65Q131.79-5.65 132.24-5.18 132.69-4.7 132.69-4.2L132.69-4.2Q132.69-3.95 132.49-3.75L132.49-3.75Q128.64 0.7 122.59 0.7ZM146.69 0.7L146.69 0.7Q144.24 0.7 142.26-0.05 140.29-0.8 139.14-2.23 137.99-3.65 137.99-5.55L137.99-5.55Q137.99-7.25 139.14-8.35 140.29-9.45 142.14-9.45L142.14-9.45Q142.54-9.45 142.86-9.33 143.19-9.2 143.19-8.85L143.19-8.85Q143.19-8.55 142.89-7.93 142.59-7.3 142.59-6.05L142.59-6.05Q142.59-4.55 143.34-3.6 144.09-2.65 145.19-2.2 146.29-1.75 147.34-1.75L147.34-1.75Q149.39-1.75 150.71-2.88 152.04-4 152.04-5.8L152.04-5.8Q152.04-7 151.26-7.83 150.49-8.65 149.24-9.3 147.99-9.95 146.59-10.55L146.59-10.55Q144.79-11.3 142.94-12.3 141.09-13.3 139.84-14.83 138.59-16.35 138.59-18.75L138.59-18.75Q138.59-20.8 139.79-22.3 140.99-23.8 143.04-24.65 145.09-25.5 147.69-25.5L147.69-25.5Q151.19-25.5 153.56-24.13 155.94-22.75 155.94-20.35L155.94-20.35Q155.94-18.5 154.76-17.25 153.59-16 151.74-16L151.74-16Q150.69-16 150.69-16.65L150.69-16.65Q150.69-17.05 151.06-17.68 151.44-18.3 151.44-19.45L151.44-19.45Q151.44-20.8 150.79-21.6 150.14-22.4 149.21-22.75 148.29-23.1 147.34-23.1L147.34-23.1Q145.24-23.1 144.09-22.08 142.94-21.05 142.94-19.45L142.94-19.45Q142.94-18.1 143.76-17.15 144.59-16.2 145.94-15.5 147.29-14.8 148.79-14.15L148.79-14.15Q150.64-13.4 152.41-12.48 154.19-11.55 155.39-10.2 156.59-8.85 156.59-6.8L156.59-6.8Q156.59-3.4 153.89-1.35 151.19 0.7 146.69 0.7Z" opacity="1" transform="matrix(1,0,0,1,0,0)" fill="#2ecc40" class="undefined-tk-1"></path></svg></g></svg></g></svg></g></svg></g></svg></g><g></g></svg></g><defs></defs></svg><rect width="395.52" height="80.2007207378934" fill="none" stroke="none" visibility="hidden"></rect></g></svg></g></svg>